<svg xmlns="http://www.w3.org/2000/svg" viewBox="0 0 500 460" role="img" aria-labelledby="t" xmlns:c2pa="http://c2pa.org/manifest"><metadata><c2pa:manifest>AAAWgmp1bWIAAAAeanVtZGMycGEAEQAQgAAAqgA4m3EDYzJwYQAAABZcanVtYgAAAEdqdW1kYzJtYQARABCAAACqADibcQN1cm46YzJwYTo5ZDgzYjdiNy1iNDY1LTRlM2EtODQ3MC1kOTY2MDY5MTYwNWQAAAADl2p1bWIAAAApanVtZGMyYXMAEQAQgAAAqgA4m3EDYzJwYS5hc3NlcnRpb25zAAAAALxqdW1iAAAARGp1bWRjYm9yABEAEIAAAKoAOJtxE2MycGEuaW5ncmVkaWVudC52MwAAAAAYYzJzaMLatAXnCsqstzmb+LqUzBsAAABwY2JvcqNpZGM6Zm9ybWF0bWltYWdlL3N2Zyt4bWxqaW5zdGFuY2VJRHgseG1wOmlpZDozYjJiNDFjOS05NmIxLTQ3ODMtYmMyOC05NmNiY2M3ZWJhODBscmVsYXRpb25zaGlwaHBhcmVudE9mAAAB4mp1bWIAAABBanVtZGNib3IAEQAQgAAAqgA4m3ETYzJwYS5hY3Rpb25zLnYyAAAAABhjMnNoQyO7eHmRE+/KxLbkLiWY8AAAAZljYm9yomdhY3Rpb25zgqJmYWN0aW9ua2MycGEub3BlbmVkanBhcmFtZXRlcnOha2luZ3JlZGllbnRzgaJjdXJseC1zZWxmI2p1bWJmPWMycGEuYXNzZXJ0aW9ucy9jMnBhLmluZ3JlZGllbnQudjNkaGFzaFggjqpBE4WTsyd8M715waRV+5M1YRi1rLYkHbWZotnfPIukZmFjdGlvbngdY29tLmFudGhyb3BpYy5jbGF1ZGUucHJvdmlkZWRqcGFyYW1ldGVyc6F4H2NvbS5hbnRocm9waWMub3JpZ2luLWNvbmZpZGVuY2VndW5rbm93bmtkZXNjcmlwdGlvbnhmQ2xhdWRlIHByb3ZpZGVkIHRoaXMgZmlsZSBhdCB0aGUgcmVxdWVzdCBvZiBhIHVzZXIgYW5kIG1heSBoYXZlIGNyZWF0ZWQgb3IgbW9kaWZpZWQgdGhlIGZpbGUgY29udGVudHMubXNvZnR3YXJlQWdlbnShZG5hbWVmQ2xhdWRlcmFsbEFjdGlvbnNJbmNsdWRlZPUAAADIanVtYgAAAEBqdW1kY2JvcgARABCAAACqADibcRNjMnBhLmhhc2guZGF0YQAAAAAYYzJzaDrzFkTofqS+wJupSbmVDWsAAACAY2JvcqVjYWxnZnNoYTI1NmNwYWRNAAAAAAAAAAAAAAAAAGRoYXNoWCB8WYaDPlOV4C2/QuNYBH+i6ASjCCfen0F0YriYICbjHGRuYW1lbmp1bWJmIG1hbmlmZXN0amV4Y2x1c2lvbnOBomVzdGFydBicZmxlbmd0aBkeBAAAAj5qdW1iAAAAJ2p1bWRjMmNsABEAEIAAAKoAOJtxA2MycGEuY2xhaW0udjIAAAACD2Nib3KlY2FsZ2ZzaGEyNTZpc2lnbmF0dXJleE1zZWxmI2p1bWJmPS9jMnBhL3VybjpjMnBhOjlkODNiN2I3LWI0NjUtNGUzYS04NDcwLWQ5NjYwNjkxNjA1ZC9jMnBhLnNpZ25hdHVyZWppbnN0YW5jZUlEeCx4bXA6aWlkOmYyMjY1MjU2LTlhZDUtNGY3Mi04NGRhLTdkZTdlNGFiY2ExNXJjcmVhdGVkX2Fzc2VydGlvbnODomN1cmx4LXNlbGYjanVtYmY9YzJwYS5hc3NlcnRpb25zL2MycGEuaW5ncmVkaWVudC52M2RoYXNoWCCOqkEThZOzJ3wzvXnBpFX7kzVhGLWstiQdtZmi2d88i6JjdXJseCpzZWxmI2p1bWJmPWMycGEuYXNzZXJ0aW9ucy9jMnBhLmFjdGlvbnMudjJkaGFzaFggKUvTOLoej464WVlcinf6JKQFrNnBRVdmOd8VA1pqYeCiY3VybHgpc2VsZiNqdW1iZj1jMnBhLmFzc2VydGlvbnMvYzJwYS5oYXNoLmRhdGFkaGFzaFggYSyTNx5xjrYrTLgmT/GghU/Zl/Xawr4FNAgui5wb1jh0Y2xhaW1fZ2VuZXJhdG9yX2luZm+jZG5hbWVvQW50aHJvcGljIEZpbGVzZ3ZlcnNpb25lMS4wLjBrc3BlY1ZlcnNpb25lMi40LjAAABA4anVtYgAAAChqdW1kYzJjcwARABCAAACqADibcQNjMnBhLnNpZ25hdHVyZQAAABAIY2JvctKEWQISogEmGCFZAgowggIGMIIBjaADAgECAhRA5aAK7sI50L64g/oGQgU9Z1UTADAKBggqhkjOPQQDAzBJMRcwFQYDVQQKEw5BbnRocm9waWMsIFBCQzEuMCwGA1UEAxMlQW50aHJvcGljIENvbnRlbnQgQ3JlZGVudGlhbHMgUm9vdCBDQTAeFw0yNjA4MDcxODQzNTZaFw0yODA4MDYxOTQzNTZaMEQxFzAVBgNVBAoTDkFudGhyb3BpYywgUEJDMSkwJwYDVQQDEyBBbnRocm9waWMgQ2xhdWRlIENvbnRlbnQgU2lnbmluZzBZMBMGByqGSM49AgEGCCqGSM49AwEHA0IABJh6CmvLUBgFFNU0vUKlOVtE6djd17L5SuwX0LemFisBM3dkd/3cyjxFA3Qo5S46fX0/ihY0VZ7mfb9KF703t5OjWDBWMA4GA1UdDwEB/wQEAwIHgDAVBgNVHSUEDjAMBgorBgEEAYPoXgIBMAwGA1UdEwEB/wQCMAAwHwYDVR0jBBgwFoAUzlHiBIFOZFsj+OPEz5o+nMHXXMIwCgYIKoZIzj0EAwMDZwAwZAIwMXMdFJ4BetLLVY7ORuE9noqbbAZOZn/aArXyTwFAZfKrPzxF2vPoJNf1+UCdg1XGAjBwX1zd9WGqYkqmL5SFqw1QySjr1zJfpJM9+1rdDwSPLMOPOjKuiXjoU/pUUeG9RwmhY3BhZFkNngAAAAAAAAAAAAAAAAAAAAAAAAAAAAAAAAAAAAAAAAAAAAAAAAAAAAAAAAAAAAAAAAAAAAAAAAAAAAAAAAAAAAAAAAAAAAAAAAAAAAAAAAAAAAAAAAAAAAAAAAAAAAAAAAAAAAAAAAAAAAAAAAAAAAAAAAAAAAAAAAAAAAAAAAAAAAAAAAAAAAAAAAAAAAAAAAAAAAAAAAAAAAAAAAAAAAAAAAAAAAAAAAAAAAAAAAAAAAAAAAAAAAAAAAAAAAAAAAAAAAAAAAAAAAAAAAAAAAAAAAAAAAAAAAAAAAAAAAAAAAAAAAAAAAAAAAAAAAAAAAAAAAAAAAAAAAAAAAAAAAAAAAAAAAAAAAAAAAAAAAAAAAAAAAAAAAAAAAAAAAAAAAAAAAAAAAAAAAAAAAAAAAAAAAAAAAAAAAAAAAAAAAAAAAAAAAAAAAAAAAAAAAAAAAAAAAAAAAAAAAAAAAAAAAAAAAAAAAAAAAAAAAAAAAAAAAAAAAAAAAAAAAAAAAAAAAAAAAAAAAAAAAAAAAAAAAAAAAAAAAAAAAAAAAAAAAAAAAAAAAAAAAAAAAAAAAAAAAAAAAAAAAAAAAAAAAAAAAAAAAAAAAAAAAAAAAAAAAAAAAAAAAAAAAAAAAAAAAAAAAAAAAAAAAAAAAAAAAAAAAAAAAAAAAAAAAAAAAAAAAAAAAAAAAAAAAAAAAAAAAAAAAAAAAAAAAAAAAAAAAAAAAAAAAAAAAAAAAAAAAAAAAAAAAAAAAAAAAAAAAAAAAAAAAAAAAAAAAAAAAAAAAAAAAAAAAAAAAAAAAAAAAAAAAAAAAAAAAAAAAAAAAAAAAAAAAAAAAAAAAAAAAAAAAAAAAAAAAAAAAAAAAAAAAAAAAAAAAAAAAAAAAAAAAAAAAAAAAAAAAAAAAAAAAAAAAAAAAAAAAAAAAAAAAAAAAAAAAAAAAAAAAAAAAAAAAAAAAAAAAAAAAAAAAAAAAAAAAAAAAAAAAAAAAAAAAAAAAAAAAAAAAAAAAAAAAAAAAAAAAAAAAAAAAAAAAAAAAAAAAAAAAAAAAAAAAAAAAAAAAAAAAAAAAAAAAAAAAAAAAAAAAAAAAAAAAAAAAAAAAAAAAAAAAAAAAAAAAAAAAAAAAAAAAAAAAAAAAAAAAAAAAAAAAAAAAAAAAAAAAAAAAAAAAAAAAAAAAAAAAAAAAAAAAAAAAAAAAAAAAAAAAAAAAAAAAAAAAAAAAAAAAAAAAAAAAAAAAAAAAAAAAAAAAAAAAAAAAAAAAAAAAAAAAAAAAAAAAAAAAAAAAAAAAAAAAAAAAAAAAAAAAAAAAAAAAAAAAAAAAAAAAAAAAAAAAAAAAAAAAAAAAAAAAAAAAAAAAAAAAAAAAAAAAAAAAAAAAAAAAAAAAAAAAAAAAAAAAAAAAAAAAAAAAAAAAAAAAAAAAAAAAAAAAAAAAAAAAAAAAAAAAAAAAAAAAAAAAAAAAAAAAAAAAAAAAAAAAAAAAAAAAAAAAAAAAAAAAAAAAAAAAAAAAAAAAAAAAAAAAAAAAAAAAAAAAAAAAAAAAAAAAAAAAAAAAAAAAAAAAAAAAAAAAAAAAAAAAAAAAAAAAAAAAAAAAAAAAAAAAAAAAAAAAAAAAAAAAAAAAAAAAAAAAAAAAAAAAAAAAAAAAAAAAAAAAAAAAAAAAAAAAAAAAAAAAAAAAAAAAAAAAAAAAAAAAAAAAAAAAAAAAAAAAAAAAAAAAAAAAAAAAAAAAAAAAAAAAAAAAAAAAAAAAAAAAAAAAAAAAAAAAAAAAAAAAAAAAAAAAAAAAAAAAAAAAAAAAAAAAAAAAAAAAAAAAAAAAAAAAAAAAAAAAAAAAAAAAAAAAAAAAAAAAAAAAAAAAAAAAAAAAAAAAAAAAAAAAAAAAAAAAAAAAAAAAAAAAAAAAAAAAAAAAAAAAAAAAAAAAAAAAAAAAAAAAAAAAAAAAAAAAAAAAAAAAAAAAAAAAAAAAAAAAAAAAAAAAAAAAAAAAAAAAAAAAAAAAAAAAAAAAAAAAAAAAAAAAAAAAAAAAAAAAAAAAAAAAAAAAAAAAAAAAAAAAAAAAAAAAAAAAAAAAAAAAAAAAAAAAAAAAAAAAAAAAAAAAAAAAAAAAAAAAAAAAAAAAAAAAAAAAAAAAAAAAAAAAAAAAAAAAAAAAAAAAAAAAAAAAAAAAAAAAAAAAAAAAAAAAAAAAAAAAAAAAAAAAAAAAAAAAAAAAAAAAAAAAAAAAAAAAAAAAAAAAAAAAAAAAAAAAAAAAAAAAAAAAAAAAAAAAAAAAAAAAAAAAAAAAAAAAAAAAAAAAAAAAAAAAAAAAAAAAAAAAAAAAAAAAAAAAAAAAAAAAAAAAAAAAAAAAAAAAAAAAAAAAAAAAAAAAAAAAAAAAAAAAAAAAAAAAAAAAAAAAAAAAAAAAAAAAAAAAAAAAAAAAAAAAAAAAAAAAAAAAAAAAAAAAAAAAAAAAAAAAAAAAAAAAAAAAAAAAAAAAAAAAAAAAAAAAAAAAAAAAAAAAAAAAAAAAAAAAAAAAAAAAAAAAAAAAAAAAAAAAAAAAAAAAAAAAAAAAAAAAAAAAAAAAAAAAAAAAAAAAAAAAAAAAAAAAAAAAAAAAAAAAAAAAAAAAAAAAAAAAAAAAAAAAAAAAAAAAAAAAAAAAAAAAAAAAAAAAAAAAAAAAAAAAAAAAAAAAAAAAAAAAAAAAAAAAAAAAAAAAAAAAAAAAAAAAAAAAAAAAAAAAAAAAAAAAAAAAAAAAAAAAAAAAAAAAAAAAAAAAAAAAAAAAAAAAAAAAAAAAAAAAAAAAAAAAAAAAAAAAAAAAAAAAAAAAAAAAAAAAAAAAAAAAAAAAAAAAAAAAAAAAAAAAAAAAAAAAAAAAAAAAAAAAAAAAAAAAAAAAAAAAAAAAAAAAAAAAAAAAAAAAAAAAAAAAAAAAAAAAAAAAAAAAAAAAAAAAAAAAAAAAAAAAAAAAAAAAAAAAAAAAAAAAAAAAAAAAAAAAAAAAAAAAAAAAAAAAAAAAAAAAAAAAAAAAAAAAAAAAAAAAAAAAAAAAAAAAAAAAAAAAAAAAAAAAAAAAAAAAAAAAAAAAAAAAAAAAAAAAAAAAAAAAAAAAAAAAAAAAAAAAAAAAAAAAAAAAAAAAAAAAAAAAAAAAAAAAAAAAAAAAAAAAAAAAAAAAAAAAAAAAAAAAAAAAAAAAAAAAAAAAAAAAAAAAAAAAAAAAAAAAAAAAAAAAAAAAAAAAAAAAAAAAAAAAAAAAAAAAAAAAAAAAAAAAAAAAAAAAAAAAAAAAAAAAAAAAAAAAAAAAAAAAAAAAAAAAAAAAAAAAAAAAAAAAAAAAAAAAAAAAAAAAAAAAAAAAAAAAAAAAAAAAAAAAAAAAAAAAAAAAAAAAAAAAAAAAAAAAAAAAAAAAAAAAAAAAAAAAAAAAAAAAAAAAAAAAAAAAAAAAAAAAAAAAAAAAAAAAAAAAAAAAAAAAAAAAAAAAAAAAAAAAAAAAAAAAAAAAAAAAAAAAAAAAAAAAAAAAAAAAAAAAAAAAAAAAAAAAAAAAAAAAAAAAAAAAAAAAAAAAAAAAAAAAAAAAAAAAAAAAAAAAAAAAAAAAAAAAAAAAAAAAAAAAAAAAAAAAAAAAAAAAAAAAAAAAAAAAAAAAAAAAAAAAAAAAAAAAAAAAAAAAAAAAAAAAAAAAAAAAAAAAAAAAAAAAAAAAAAAAAAAAAAAAAAAAAAAAAAAAAAAAAAAAAAAAAAAAAAAAAAAAAAAAAAAAAAAAAAAAAAAAAAAAAAAAAAAAAAAAAAAAAAAAAAAAAAAAAAAAAAAAAAAAAAAAAAAAAAAAAAAAAAAAAAAAAAAAAAAAAAAAAAAAAAAAAAAAAAAAAAAAAAAAAAAAAAAAAAAAAAAAAAAAAAAAAAAAAAAAAAAAAAAAAAAAAAAAAAAAAAAAAAAAAAAAAAAAAAAAAAAAAAAAAAAAAAAAAAAAAAAAAAAAAAAAAAAAAAAAAAAAAAAAAAAAAAAAAAAAAAAAAAAAAAAAAAAAAAAAAAAAAAAAAAAAAAAAAAAAAAAAAAAAAAAAAAAAAAAAAAAAAAAAAAAAAAAAAAAAAAAAAAAAAAAAAAAAAAAAAAAAAAAAAAAAAAAAAAAAAAAAAAAAAAAAAAAAAAAAAAAAAAAAAAAAAAAAAAAAAAAAAAAAAAAAAAAAAAAAAAAAAAAAAAAAAAAAAAAAAAAAAAAAAAAAAAAAAAAAAAAAAAAAAAAAAAAAAAAAAAAAAAAAAAAAAAAAAAAAAAAAAAAAAAAAAAAAAAAAAAAAAAAAAAAAAAAAAAAAAAAAAAAAAAAAAAAAAAAAAAAAAAAAAAAAAAAAAAAAAAAAAAAAAAAAAAAAAAAAAAAAAAAAAAAAAAAAAAAAAAAAAAAAAAAAAAAAAAAAAAAAAAAAAAAAAAAAAAAAAAAAAAAAAAAAAAAAAAAAAAAAAAAAAAAAAAAAAAAAAAAAAAAAAAAAAAAAAAAAAAAAAAAAAAAAAAAAAAAAAAAAAAAAAAAAAAAAAAAAAAAAAAAAAAAAAAAAAAAAAAAAAAAAAAAAAAAAAAAAAAAAAAAAAAAAAAAAAAAAAAAAAAAAAAAAAAAAAAAAAAAAAAAAAAAAAAAAAAAAAAAAAAAAAAAAAAAAAAAAAAAAAAAAAAAAAAAAAAAAAAAAAAAAAAAPZYQL/qLaM9RNVrAvi0CHJ88wg40+p2/bVQ762YMmexvL+vtAbw0law0DVXucH0WYOYihsk9BhwO6cl1Es8Bs07XUU=</c2pa:manifest></metadata>
  <title id="t">Slow Money</title>
  <!-- Triangle sign: black border, yellow field, point up (Slow Theatre sign rotated 180 degrees) -->
  <path d="M250 38 L466 414 L34 414 Z" fill="#F5C518" stroke="#111" stroke-width="36" stroke-linejoin="round"/>
  <!-- Tree-ring coin: the generations -->
  <g>
    <path d="M348.1 290.0 Q348.1 290.0 348.0 291.7 Q347.9 293.4 347.7 295.1 Q347.5 296.8 347.3 298.5 Q347.0 300.2 346.7 301.9 Q346.4 303.5 346.0 305.2 Q345.6 306.9 345.2 308.5 Q344.8 310.1 344.3 311.8 Q343.8 313.4 343.3 315.0 Q342.7 316.6 342.1 318.2 Q341.5 319.7 340.7 321.2 Q340.0 322.8 339.3 324.3 Q338.5 325.8 337.7 327.2 Q336.9 328.7 336.0 330.1 Q335.1 331.5 334.2 332.9 Q333.2 334.3 332.2 335.6 Q331.3 336.9 330.2 338.2 Q329.2 339.5 328.2 340.8 Q327.2 342.1 326.3 343.4 Q325.4 344.8 324.4 346.0 Q323.4 347.3 322.3 348.6 Q321.3 349.8 320.1 351.0 Q319.0 352.2 317.9 353.3 Q316.7 354.4 315.5 355.5 Q314.3 356.6 313.1 357.6 Q311.8 358.7 310.4 359.5 Q309.1 360.4 307.6 361.1 Q306.1 361.7 304.5 362.4 Q303.0 363.0 301.5 363.5 Q300.0 364.1 298.4 364.6 Q296.9 365.1 295.4 365.5 Q293.9 366.0 292.3 366.4 Q290.8 366.8 289.3 367.1 Q287.8 367.5 286.3 367.9 Q284.9 368.3 283.5 368.9 Q282.1 369.4 280.7 370.0 Q279.3 370.5 277.9 371.0 Q276.5 371.6 275.1 372.1 Q273.7 372.6 272.3 373.1 Q270.8 373.6 269.4 374.1 Q268.0 374.6 266.5 375.0 Q265.1 375.5 263.6 376.0 Q262.1 376.4 260.6 376.6 Q259.1 376.8 257.6 376.9 Q256.1 377.1 254.6 377.2 Q253.1 377.4 251.5 377.5 Q250.0 377.6 248.5 377.7 Q246.9 377.8 245.4 377.9 Q243.9 377.9 242.3 377.9 Q240.8 378.0 239.2 377.9 Q237.6 377.9 236.1 378.0 Q234.5 378.0 232.9 378.0 Q231.3 378.0 229.7 378.0 Q228.1 377.9 226.5 377.8 Q224.9 377.7 223.2 377.5 Q221.6 377.3 220.0 377.0 Q218.4 376.8 216.8 376.4 Q215.2 376.1 213.6 375.7 Q212.0 375.3 210.4 374.8 Q208.8 374.4 207.2 373.9 Q205.6 373.4 204.0 372.9 Q202.5 372.3 200.9 371.7 Q199.4 371.0 197.8 370.3 Q196.3 369.6 194.8 368.8 Q193.3 368.0 191.9 367.1 Q190.4 366.2 189.0 365.3 Q187.6 364.3 186.2 363.3 Q184.9 362.3 183.5 361.3 Q182.2 360.2 180.9 359.1 Q179.6 358.0 178.3 356.8 Q177.1 355.6 175.9 354.4 Q174.7 353.2 173.5 351.9 Q172.4 350.6 171.3 349.3 Q170.2 348.0 169.1 346.6 Q168.0 345.3 167.1 343.8 Q166.2 342.3 165.6 340.7 Q165.0 339.1 164.4 337.5 Q163.8 335.8 163.3 334.2 Q162.8 332.5 162.3 330.9 Q161.9 329.2 161.5 327.6 Q161.1 325.9 160.7 324.3 Q160.4 322.6 160.1 321.0 Q159.8 319.3 159.5 317.7 Q159.2 316.0 158.8 314.4 Q158.4 312.8 158.0 311.2 Q157.6 309.6 157.3 308.0 Q157.0 306.4 156.7 304.8 Q156.4 303.2 156.2 301.5 Q156.0 299.9 155.9 298.2 Q155.8 296.6 155.7 294.9 Q155.6 293.3 155.6 291.6 Q155.6 290.0 155.6 288.4 Q155.5 286.7 155.6 285.0 Q155.6 283.4 155.7 281.7 Q155.8 280.1 156.0 278.5 Q156.1 276.8 156.4 275.2 Q156.6 273.5 156.9 271.9 Q157.2 270.3 157.6 268.7 Q157.9 267.0 158.4 265.4 Q158.8 263.8 159.3 262.3 Q159.8 260.7 160.4 259.1 Q160.9 257.6 161.6 256.1 Q162.2 254.5 162.9 253.0 Q163.5 251.5 164.2 250.0 Q165.0 248.5 165.7 247.1 Q166.5 245.6 167.3 244.2 Q168.1 242.7 168.9 241.3 Q169.8 239.9 170.8 238.5 Q171.8 237.2 172.9 236.0 Q174.0 234.8 175.1 233.6 Q176.2 232.3 177.4 231.2 Q178.5 230.0 179.7 228.9 Q180.8 227.7 182.0 226.6 Q183.2 225.5 184.4 224.4 Q185.6 223.3 186.9 222.3 Q188.1 221.2 189.3 220.2 Q190.6 219.2 191.8 218.1 Q193.1 217.1 194.3 216.1 Q195.6 215.1 196.9 214.2 Q198.2 213.2 199.5 212.3 Q200.9 211.4 202.2 210.5 Q203.6 209.6 205.0 208.8 Q206.4 208.0 207.8 207.2 Q209.2 206.4 210.7 205.7 Q212.1 204.9 213.5 204.0 Q214.9 203.1 216.3 202.3 Q217.8 201.4 219.2 200.7 Q220.7 199.9 222.2 199.2 Q223.8 198.5 225.3 197.9 Q226.9 197.2 228.5 196.7 Q230.0 196.1 231.7 195.6 Q233.3 195.1 234.9 194.8 Q236.6 194.4 238.3 194.6 Q240.0 194.8 241.7 195.1 Q243.4 195.3 245.0 195.7 Q246.7 196.0 248.4 196.4 Q250.0 196.8 251.6 197.3 Q253.2 197.8 254.8 198.4 Q256.4 198.9 257.9 199.5 Q259.4 200.1 261.0 200.8 Q262.5 201.4 264.0 201.6 Q265.6 201.7 267.1 201.9 Q268.7 202.0 270.3 202.2 Q271.8 202.4 273.4 202.6 Q275.0 202.9 276.6 203.2 Q278.1 203.4 279.7 203.7 Q281.3 204.1 282.9 204.4 Q284.4 204.8 286.0 205.1 Q287.6 205.5 289.1 206.2 Q290.5 207.0 291.9 207.8 Q293.2 208.7 294.6 209.6 Q295.9 210.5 297.2 211.4 Q298.6 212.3 299.9 213.2 Q301.2 214.2 302.4 215.1 Q303.7 216.1 305.0 217.1 Q306.2 218.0 307.4 219.1 Q308.7 220.1 309.9 221.1 Q311.2 222.0 312.5 223.0 Q313.8 224.0 315.0 225.0 Q316.3 226.0 317.5 227.1 Q318.7 228.1 319.9 229.2 Q321.1 230.3 322.3 231.5 Q323.4 232.6 324.5 233.8 Q325.6 235.0 326.7 236.3 Q327.8 237.5 328.8 238.8 Q329.8 240.1 330.8 241.4 Q331.8 242.8 332.7 244.1 Q333.7 245.5 334.6 246.9 Q335.4 248.3 336.2 249.8 Q337.1 251.2 337.8 252.7 Q338.5 254.2 339.2 255.8 Q339.9 257.3 340.5 258.8 Q341.1 260.4 341.6 262.0 Q342.2 263.6 342.8 265.1 Q343.4 266.7 344.0 268.3 Q344.5 269.9 345.0 271.5 Q345.4 273.2 345.8 274.8 Q346.2 276.5 346.6 278.1 Q346.9 279.8 347.2 281.5 Q347.5 283.2 347.7 284.9 Q347.9 286.6 348.0 288.3 Z" fill="#111"/>
    <path d="M335.1 290.0 Q335.1 290.0 335.0 291.5 Q335.0 293.0 334.8 294.4 Q334.7 295.9 334.5 297.4 Q334.4 298.9 334.1 300.3 Q333.9 301.8 333.6 303.2 Q333.4 304.7 333.0 306.1 Q332.7 307.6 332.3 309.0 Q331.9 310.4 331.5 311.8 Q331.0 313.2 330.6 314.6 Q330.1 316.0 329.5 317.4 Q329.0 318.7 328.4 320.1 Q327.8 321.4 327.1 322.7 Q326.5 324.1 325.8 325.3 Q325.1 326.6 324.3 327.9 Q323.5 329.1 322.7 330.3 Q321.9 331.5 321.0 332.7 Q320.2 333.9 319.3 335.0 Q318.3 336.1 317.4 337.2 Q316.4 338.2 315.4 339.3 Q314.4 340.3 313.3 341.3 Q312.2 342.2 311.1 343.1 Q310.0 344.1 308.9 344.9 Q307.8 345.8 306.6 346.6 Q305.4 347.4 304.2 348.1 Q303.0 348.9 301.8 349.6 Q300.6 350.3 299.3 350.9 Q298.1 351.6 296.8 352.1 Q295.6 352.7 294.3 353.3 Q293.0 353.8 291.8 354.3 Q290.5 354.8 289.2 355.3 Q288.0 355.7 286.7 356.2 Q285.4 356.6 284.1 357.0 Q282.9 357.4 281.6 357.8 Q280.3 358.1 279.1 358.5 Q277.8 358.8 276.6 359.2 Q275.3 359.5 274.1 359.8 Q272.8 360.2 271.6 360.5 Q270.3 360.8 269.1 361.1 Q267.8 361.4 266.6 361.7 Q265.3 362.0 264.1 362.3 Q262.8 362.6 261.6 362.9 Q260.3 363.2 259.0 363.5 Q257.8 363.8 256.5 364.1 Q255.2 364.4 253.9 364.7 Q252.6 364.9 251.3 365.2 Q250.0 365.5 248.7 365.7 Q247.3 365.9 246.0 366.1 Q244.7 366.4 243.3 366.6 Q241.9 366.7 240.6 366.9 Q239.2 367.0 237.8 367.1 Q236.4 367.2 235.0 367.3 Q233.6 367.4 232.1 367.4 Q230.7 367.4 229.3 367.3 Q227.8 367.3 226.4 367.1 Q225.0 367.0 223.5 366.8 Q222.1 366.7 220.7 366.4 Q219.2 366.1 217.8 365.8 Q216.4 365.5 215.0 365.1 Q213.6 364.7 212.2 364.2 Q210.8 363.7 209.5 363.1 Q208.1 362.6 206.8 361.9 Q205.4 361.3 204.1 360.6 Q202.8 359.9 201.6 359.1 Q200.3 358.4 199.1 357.5 Q197.9 356.7 196.7 355.8 Q195.5 354.9 194.4 353.9 Q193.3 353.0 192.2 352.0 Q191.1 351.0 190.1 349.9 Q189.0 348.9 188.1 347.8 Q187.1 346.7 186.1 345.5 Q185.2 344.4 184.3 343.2 Q183.4 342.0 182.6 340.8 Q181.7 339.6 180.9 338.4 Q180.1 337.1 179.4 335.9 Q178.6 334.6 177.9 333.3 Q177.2 332.0 176.5 330.7 Q175.8 329.4 175.2 328.1 Q174.6 326.8 174.0 325.4 Q173.4 324.1 172.9 322.7 Q172.3 321.4 171.9 320.0 Q171.4 318.6 170.9 317.2 Q170.5 315.8 170.1 314.4 Q169.7 313.0 169.3 311.6 Q169.0 310.2 168.6 308.8 Q168.3 307.4 168.1 305.9 Q167.8 304.5 167.6 303.0 Q167.4 301.6 167.3 300.2 Q167.2 298.7 167.1 297.3 Q167.0 295.8 167.0 294.4 Q167.0 292.9 167.0 291.4 Q167.0 290.0 167.1 288.6 Q167.3 287.1 167.4 285.7 Q167.6 284.2 167.8 282.8 Q168.0 281.4 168.3 280.0 Q168.6 278.6 169.0 277.2 Q169.3 275.8 169.7 274.4 Q170.1 273.0 170.6 271.7 Q171.0 270.3 171.5 269.0 Q172.1 267.7 172.6 266.3 Q173.2 265.0 173.8 263.8 Q174.4 262.5 175.0 261.2 Q175.7 260.0 176.4 258.7 Q177.0 257.5 177.8 256.3 Q178.5 255.1 179.2 253.9 Q180.0 252.8 180.8 251.6 Q181.5 250.5 182.3 249.3 Q183.1 248.2 184.0 247.1 Q184.8 246.0 185.6 244.9 Q186.5 243.8 187.3 242.8 Q188.2 241.7 189.1 240.7 Q189.9 239.6 190.8 238.6 Q191.7 237.6 192.7 236.5 Q193.6 235.5 194.5 234.5 Q195.5 233.5 196.4 232.6 Q197.4 231.6 198.4 230.6 Q199.4 229.7 200.4 228.7 Q201.4 227.8 202.4 226.9 Q203.5 226.0 204.6 225.1 Q205.6 224.2 206.7 223.4 Q207.8 222.5 209.0 221.7 Q210.1 220.9 211.3 220.1 Q212.4 219.3 213.6 218.6 Q214.8 217.9 216.0 217.2 Q217.3 216.5 218.5 215.9 Q219.8 215.2 221.1 214.7 Q222.4 214.1 223.7 213.6 Q225.0 213.1 226.4 212.7 Q227.7 212.2 229.1 211.8 Q230.4 211.5 231.8 211.2 Q233.2 210.9 234.6 210.6 Q236.0 210.4 237.4 210.2 Q238.8 210.1 240.2 210.0 Q241.6 209.9 243.0 209.9 Q244.4 209.8 245.8 209.9 Q247.2 209.9 248.6 210.0 Q250.0 210.1 251.4 210.3 Q252.8 210.5 254.2 210.7 Q255.5 210.9 256.9 211.2 Q258.3 211.5 259.6 211.8 Q260.9 212.1 262.3 212.5 Q263.6 212.9 264.9 213.2 Q266.2 213.6 267.5 214.1 Q268.8 214.5 270.1 215.0 Q271.4 215.4 272.7 215.9 Q273.9 216.4 275.2 216.9 Q276.4 217.4 277.7 217.9 Q278.9 218.4 280.2 219.0 Q281.4 219.5 282.6 220.1 Q283.8 220.6 285.1 221.2 Q286.3 221.8 287.5 222.3 Q288.7 222.9 289.9 223.5 Q291.2 224.1 292.4 224.8 Q293.6 225.4 294.8 226.1 Q296.0 226.7 297.2 227.4 Q298.4 228.1 299.6 228.8 Q300.8 229.5 302.0 230.2 Q303.1 231.0 304.3 231.8 Q305.5 232.5 306.6 233.4 Q307.8 234.2 308.9 235.0 Q310.1 235.9 311.2 236.8 Q312.3 237.7 313.4 238.7 Q314.5 239.6 315.5 240.6 Q316.6 241.6 317.6 242.7 Q318.6 243.7 319.6 244.8 Q320.5 245.9 321.4 247.1 Q322.4 248.2 323.2 249.4 Q324.1 250.6 324.9 251.8 Q325.7 253.1 326.4 254.4 Q327.2 255.6 327.9 256.9 Q328.6 258.3 329.2 259.6 Q329.8 261.0 330.4 262.3 Q330.9 263.7 331.4 265.1 Q331.9 266.5 332.3 267.9 Q332.7 269.4 333.1 270.8 Q333.5 272.3 333.7 273.7 Q334.0 275.2 334.3 276.7 Q334.5 278.1 334.7 279.6 Q334.8 281.1 334.9 282.6 Q335.0 284.1 335.1 285.5 Q335.1 287.0 335.1 288.5 Z" fill="none" stroke="#F5C518" stroke-width="4"/>
    <line x1="335.1" y1="286.1" x2="355.2" y2="285.2" stroke="#F5C518" stroke-width="3.2" stroke-linecap="round"/>
    <line x1="324.4" y1="327.7" x2="343.9" y2="337.5" stroke="#F5C518" stroke-width="3.2" stroke-linecap="round"/>
    <line x1="311.6" y1="342.8" x2="329.9" y2="358.5" stroke="#F5C518" stroke-width="3.2" stroke-linecap="round"/>
    <line x1="277.0" y1="359.1" x2="288.4" y2="388.0" stroke="#F5C518" stroke-width="3.2" stroke-linecap="round"/>
    <line x1="247.5" y1="365.9" x2="246.5" y2="395.2" stroke="#F5C518" stroke-width="3.2" stroke-linecap="round"/>
    <line x1="221.0" y1="366.5" x2="212.7" y2="388.5" stroke="#F5C518" stroke-width="3.2" stroke-linecap="round"/>
    <line x1="189.4" y1="349.2" x2="174.7" y2="363.6" stroke="#F5C518" stroke-width="3.2" stroke-linecap="round"/>
    <line x1="176.2" y1="330.1" x2="157.5" y2="340.3" stroke="#F5C518" stroke-width="3.2" stroke-linecap="round"/>
    <line x1="167.2" y1="298.8" x2="145.3" y2="301.1" stroke="#F5C518" stroke-width="3.2" stroke-linecap="round"/>
    <line x1="173.4" y1="264.4" x2="150.1" y2="256.7" stroke="#F5C518" stroke-width="3.2" stroke-linecap="round"/>
    <line x1="196.9" y1="232.1" x2="178.8" y2="212.4" stroke="#F5C518" stroke-width="3.2" stroke-linecap="round"/>
    <line x1="217.9" y1="216.2" x2="208.0" y2="193.4" stroke="#F5C518" stroke-width="3.2" stroke-linecap="round"/>
    <line x1="246.4" y1="209.9" x2="245.3" y2="184.8" stroke="#F5C518" stroke-width="3.2" stroke-linecap="round"/>
    <line x1="281.0" y1="219.3" x2="292.3" y2="193.6" stroke="#F5C518" stroke-width="3.2" stroke-linecap="round"/>
    <line x1="305.9" y1="232.8" x2="323.6" y2="214.7" stroke="#F5C518" stroke-width="3.2" stroke-linecap="round"/>
    <line x1="326.3" y1="254.0" x2="345.2" y2="245.1" stroke="#F5C518" stroke-width="3.2" stroke-linecap="round"/>
    <path d="M321.5 290.0 Q321.5 290.0 321.4 291.2 Q321.3 292.5 321.2 293.7 Q321.0 295.0 320.8 296.2 Q320.6 297.4 320.4 298.6 Q320.2 299.9 319.9 301.1 Q319.7 302.3 319.4 303.5 Q319.1 304.7 318.8 305.9 Q318.4 307.1 318.1 308.2 Q317.7 309.4 317.3 310.6 Q316.9 311.7 316.5 312.9 Q316.0 314.0 315.6 315.2 Q315.1 316.3 314.6 317.4 Q314.0 318.5 313.5 319.6 Q312.9 320.7 312.3 321.8 Q311.7 322.8 311.1 323.9 Q310.5 324.9 309.8 325.9 Q309.1 326.9 308.4 327.9 Q307.7 328.9 306.9 329.9 Q306.2 330.8 305.4 331.7 Q304.6 332.6 303.7 333.5 Q302.9 334.4 302.0 335.2 Q301.1 336.0 300.2 336.8 Q299.3 337.6 298.3 338.3 Q297.4 339.1 296.4 339.8 Q295.4 340.5 294.4 341.1 Q293.4 341.8 292.4 342.4 Q291.4 343.0 290.3 343.5 Q289.3 344.1 288.2 344.6 Q287.2 345.1 286.1 345.6 Q285.0 346.0 283.9 346.5 Q282.8 346.9 281.8 347.3 Q280.7 347.7 279.6 348.0 Q278.5 348.4 277.4 348.7 Q276.3 349.1 275.2 349.4 Q274.1 349.7 273.0 349.9 Q271.9 350.2 270.8 350.5 Q269.7 350.7 268.6 351.0 Q267.5 351.2 266.5 351.4 Q265.4 351.6 264.3 351.9 Q263.2 352.1 262.1 352.3 Q261.0 352.5 259.9 352.7 Q258.8 352.8 257.7 353.0 Q256.6 353.2 255.5 353.4 Q254.4 353.6 253.3 353.7 Q252.2 353.9 251.1 354.0 Q250.0 354.2 248.9 354.3 Q247.8 354.4 246.6 354.5 Q245.5 354.6 244.3 354.7 Q243.2 354.8 242.0 354.9 Q240.9 355.0 239.7 355.0 Q238.5 355.0 237.4 355.0 Q236.2 355.0 235.0 355.0 Q233.8 355.0 232.6 354.9 Q231.4 354.8 230.2 354.7 Q229.0 354.6 227.8 354.4 Q226.6 354.3 225.4 354.0 Q224.2 353.8 223.0 353.6 Q221.8 353.3 220.6 353.0 Q219.5 352.6 218.3 352.2 Q217.1 351.9 215.9 351.4 Q214.8 351.0 213.7 350.5 Q212.5 350.0 211.4 349.4 Q210.3 348.9 209.2 348.3 Q208.1 347.7 207.1 347.0 Q206.0 346.3 205.0 345.6 Q203.9 344.9 202.9 344.1 Q202.0 343.4 201.0 342.5 Q200.0 341.7 199.1 340.9 Q198.2 340.0 197.3 339.1 Q196.5 338.2 195.6 337.3 Q194.8 336.3 194.0 335.3 Q193.2 334.4 192.5 333.4 Q191.7 332.4 191.0 331.3 Q190.3 330.3 189.6 329.2 Q189.0 328.1 188.3 327.0 Q187.7 326.0 187.1 324.8 Q186.6 323.7 186.0 322.6 Q185.5 321.5 185.0 320.3 Q184.5 319.1 184.1 318.0 Q183.6 316.8 183.3 315.6 Q182.9 314.4 182.5 313.2 Q182.2 312.0 181.8 310.8 Q181.5 309.6 181.3 308.4 Q181.0 307.2 180.8 306.0 Q180.6 304.7 180.4 303.5 Q180.3 302.3 180.2 301.1 Q180.1 299.8 180.0 298.6 Q179.9 297.4 179.9 296.1 Q179.9 294.9 179.9 293.7 Q180.0 292.4 180.0 291.2 Q180.1 290.0 180.3 288.8 Q180.4 287.6 180.6 286.4 Q180.7 285.2 181.0 284.0 Q181.2 282.8 181.5 281.6 Q181.7 280.4 182.0 279.2 Q182.3 278.1 182.7 276.9 Q183.0 275.8 183.4 274.6 Q183.8 273.5 184.2 272.4 Q184.7 271.3 185.1 270.2 Q185.6 269.1 186.0 268.0 Q186.5 266.9 187.0 265.8 Q187.6 264.8 188.1 263.7 Q188.6 262.7 189.2 261.6 Q189.8 260.6 190.3 259.6 Q190.9 258.6 191.5 257.6 Q192.1 256.6 192.8 255.6 Q193.4 254.6 194.0 253.7 Q194.7 252.7 195.4 251.7 Q196.0 250.8 196.7 249.8 Q197.4 248.9 198.1 248.0 Q198.8 247.0 199.5 246.1 Q200.2 245.2 201.0 244.3 Q201.7 243.4 202.5 242.5 Q203.3 241.6 204.1 240.8 Q204.9 239.9 205.7 239.0 Q206.5 238.2 207.4 237.4 Q208.2 236.5 209.1 235.7 Q210.0 235.0 210.9 234.2 Q211.8 233.4 212.8 232.7 Q213.7 231.9 214.7 231.2 Q215.7 230.5 216.7 229.9 Q217.7 229.2 218.7 228.6 Q219.8 228.0 220.8 227.4 Q221.9 226.9 223.0 226.4 Q224.1 225.9 225.2 225.4 Q226.3 224.9 227.5 224.6 Q228.6 224.2 229.8 223.8 Q230.9 223.5 232.1 223.2 Q233.3 222.9 234.5 222.7 Q235.7 222.5 236.9 222.4 Q238.0 222.2 239.2 222.1 Q240.5 222.1 241.7 222.0 Q242.9 222.0 244.1 222.0 Q245.2 222.1 246.4 222.1 Q247.6 222.2 248.8 222.4 Q250.0 222.5 251.2 222.7 Q252.3 222.9 253.5 223.1 Q254.7 223.3 255.8 223.6 Q257.0 223.8 258.1 224.1 Q259.2 224.4 260.3 224.7 Q261.5 225.0 262.6 225.4 Q263.7 225.7 264.8 226.1 Q265.8 226.5 266.9 226.8 Q268.0 227.2 269.1 227.6 Q270.1 228.0 271.2 228.4 Q272.3 228.8 273.3 229.2 Q274.4 229.7 275.4 230.1 Q276.5 230.5 277.5 230.9 Q278.6 231.4 279.6 231.8 Q280.7 232.3 281.7 232.7 Q282.8 233.2 283.8 233.7 Q284.9 234.2 285.9 234.7 Q287.0 235.2 288.0 235.7 Q289.1 236.2 290.1 236.8 Q291.2 237.3 292.2 237.9 Q293.3 238.4 294.3 239.1 Q295.3 239.7 296.3 240.3 Q297.4 240.9 298.4 241.6 Q299.4 242.3 300.4 243.0 Q301.4 243.7 302.3 244.5 Q303.3 245.3 304.2 246.1 Q305.2 246.9 306.1 247.7 Q307.0 248.6 307.9 249.5 Q308.7 250.4 309.5 251.3 Q310.4 252.3 311.1 253.3 Q311.9 254.2 312.6 255.3 Q313.4 256.3 314.0 257.4 Q314.7 258.4 315.3 259.5 Q315.9 260.6 316.5 261.8 Q317.0 262.9 317.5 264.1 Q318.0 265.2 318.5 266.4 Q318.9 267.6 319.3 268.8 Q319.6 270.0 320.0 271.3 Q320.3 272.5 320.5 273.7 Q320.8 275.0 321.0 276.2 Q321.1 277.5 321.3 278.7 Q321.4 280.0 321.5 281.2 Q321.6 282.5 321.6 283.7 Q321.7 285.0 321.6 286.2 Q321.6 287.5 321.6 288.7 Z" fill="none" stroke="#F5C518" stroke-width="3.6"/>
    <path d="M309.0 290.0 Q309.0 290.0 308.9 291.0 Q308.8 292.1 308.7 293.1 Q308.5 294.1 308.4 295.1 Q308.2 296.1 308.0 297.1 Q307.8 298.1 307.6 299.1 Q307.4 300.1 307.1 301.1 Q306.8 302.1 306.5 303.1 Q306.2 304.0 305.9 305.0 Q305.6 305.9 305.2 306.9 Q304.9 307.8 304.5 308.8 Q304.1 309.7 303.7 310.6 Q303.3 311.5 302.8 312.4 Q302.4 313.3 301.9 314.2 Q301.4 315.1 300.9 315.9 Q300.4 316.8 299.9 317.6 Q299.3 318.5 298.8 319.3 Q298.2 320.1 297.6 320.9 Q297.0 321.7 296.4 322.5 Q295.7 323.2 295.1 324.0 Q294.4 324.7 293.7 325.4 Q293.1 326.1 292.4 326.8 Q291.6 327.5 290.9 328.1 Q290.2 328.8 289.4 329.4 Q288.7 330.0 287.9 330.6 Q287.1 331.2 286.3 331.8 Q285.5 332.3 284.7 332.8 Q283.9 333.4 283.0 333.8 Q282.2 334.3 281.4 334.8 Q280.5 335.2 279.7 335.7 Q278.8 336.1 277.9 336.5 Q277.1 336.9 276.2 337.2 Q275.3 337.6 274.4 338.0 Q273.6 338.3 272.7 338.6 Q271.8 338.9 270.9 339.2 Q270.0 339.5 269.1 339.8 Q268.2 340.1 267.3 340.3 Q266.4 340.6 265.5 340.8 Q264.6 341.0 263.7 341.3 Q262.8 341.5 261.9 341.7 Q261.0 341.9 260.1 342.1 Q259.2 342.2 258.3 342.4 Q257.4 342.6 256.5 342.7 Q255.6 342.9 254.6 343.0 Q253.7 343.2 252.8 343.3 Q251.9 343.4 250.9 343.5 Q250.0 343.6 249.1 343.7 Q248.1 343.8 247.2 343.8 Q246.2 343.9 245.3 343.9 Q244.3 344.0 243.4 344.0 Q242.4 344.0 241.4 344.0 Q240.5 344.0 239.5 343.9 Q238.5 343.9 237.6 343.8 Q236.6 343.7 235.6 343.6 Q234.7 343.5 233.7 343.3 Q232.7 343.2 231.7 343.0 Q230.8 342.8 229.8 342.6 Q228.8 342.4 227.9 342.1 Q226.9 341.8 226.0 341.5 Q225.0 341.2 224.1 340.8 Q223.2 340.5 222.2 340.1 Q221.3 339.7 220.4 339.3 Q219.5 338.8 218.6 338.3 Q217.7 337.9 216.8 337.4 Q216.0 336.8 215.1 336.3 Q214.3 335.7 213.5 335.1 Q212.6 334.5 211.8 333.9 Q211.0 333.3 210.3 332.6 Q209.5 332.0 208.7 331.3 Q208.0 330.6 207.3 329.8 Q206.6 329.1 205.9 328.4 Q205.2 327.6 204.5 326.8 Q203.9 326.1 203.2 325.2 Q202.6 324.4 202.0 323.6 Q201.4 322.8 200.8 321.9 Q200.3 321.1 199.7 320.2 Q199.2 319.3 198.7 318.4 Q198.2 317.5 197.7 316.6 Q197.3 315.7 196.8 314.8 Q196.4 313.9 196.0 312.9 Q195.6 312.0 195.2 311.0 Q194.9 310.1 194.6 309.1 Q194.2 308.1 194.0 307.1 Q193.7 306.1 193.4 305.2 Q193.2 304.2 193.0 303.2 Q192.8 302.2 192.6 301.1 Q192.5 300.1 192.4 299.1 Q192.3 298.1 192.2 297.1 Q192.1 296.1 192.1 295.1 Q192.1 294.1 192.1 293.0 Q192.1 292.0 192.2 291.0 Q192.2 290.0 192.3 289.0 Q192.4 288.0 192.6 287.0 Q192.7 286.0 192.9 285.0 Q193.1 284.0 193.4 283.0 Q193.6 282.1 193.8 281.1 Q194.1 280.1 194.4 279.2 Q194.7 278.3 195.1 277.3 Q195.4 276.4 195.8 275.5 Q196.1 274.6 196.5 273.7 Q196.9 272.8 197.3 271.9 Q197.8 271.0 198.2 270.1 Q198.7 269.3 199.1 268.4 Q199.6 267.6 200.1 266.7 Q200.5 265.9 201.0 265.1 Q201.5 264.2 202.1 263.4 Q202.6 262.6 203.1 261.8 Q203.6 261.0 204.2 260.2 Q204.7 259.5 205.3 258.7 Q205.8 257.9 206.4 257.2 Q207.0 256.4 207.6 255.6 Q208.1 254.9 208.7 254.1 Q209.3 253.4 210.0 252.7 Q210.6 251.9 211.2 251.2 Q211.8 250.5 212.5 249.8 Q213.1 249.1 213.8 248.4 Q214.5 247.7 215.2 247.0 Q215.8 246.3 216.6 245.6 Q217.3 245.0 218.0 244.3 Q218.8 243.7 219.5 243.1 Q220.3 242.4 221.1 241.8 Q221.9 241.3 222.7 240.7 Q223.5 240.1 224.3 239.6 Q225.2 239.1 226.0 238.6 Q226.9 238.1 227.8 237.7 Q228.7 237.2 229.6 236.8 Q230.5 236.4 231.4 236.1 Q232.4 235.7 233.3 235.4 Q234.3 235.1 235.2 234.8 Q236.2 234.6 237.2 234.4 Q238.1 234.2 239.1 234.0 Q240.1 233.9 241.1 233.8 Q242.1 233.7 243.1 233.7 Q244.1 233.6 245.1 233.6 Q246.1 233.6 247.0 233.7 Q248.0 233.7 249.0 233.8 Q250.0 233.9 251.0 234.1 Q251.9 234.2 252.9 234.4 Q253.9 234.6 254.8 234.8 Q255.8 235.0 256.7 235.3 Q257.7 235.5 258.6 235.8 Q259.5 236.1 260.4 236.4 Q261.3 236.7 262.2 237.0 Q263.1 237.3 264.0 237.7 Q264.9 238.0 265.8 238.3 Q266.7 238.7 267.5 239.1 Q268.4 239.4 269.3 239.8 Q270.1 240.2 271.0 240.6 Q271.8 240.9 272.7 241.3 Q273.5 241.7 274.4 242.1 Q275.2 242.5 276.1 242.9 Q276.9 243.4 277.8 243.8 Q278.6 244.2 279.5 244.6 Q280.3 245.1 281.1 245.5 Q282.0 246.0 282.8 246.4 Q283.7 246.9 284.5 247.4 Q285.3 247.9 286.2 248.4 Q287.0 248.9 287.8 249.4 Q288.6 250.0 289.5 250.5 Q290.3 251.1 291.1 251.7 Q291.9 252.3 292.7 252.9 Q293.4 253.5 294.2 254.2 Q295.0 254.9 295.7 255.6 Q296.5 256.3 297.2 257.0 Q297.9 257.7 298.6 258.5 Q299.2 259.2 299.9 260.0 Q300.5 260.8 301.1 261.6 Q301.8 262.5 302.3 263.3 Q302.9 264.2 303.4 265.1 Q303.9 266.0 304.4 266.9 Q304.9 267.8 305.3 268.8 Q305.8 269.7 306.1 270.7 Q306.5 271.6 306.8 272.6 Q307.2 273.6 307.5 274.6 Q307.7 275.6 308.0 276.6 Q308.2 277.6 308.4 278.7 Q308.6 279.7 308.7 280.7 Q308.8 281.7 308.9 282.8 Q309.0 283.8 309.0 284.8 Q309.1 285.9 309.1 286.9 Q309.1 287.9 309.0 289.0 Z" fill="none" stroke="#F5C518" stroke-width="3.4"/>
    <path d="M296.9 290.0 Q296.9 290.0 296.8 290.8 Q296.7 291.6 296.6 292.4 Q296.5 293.3 296.4 294.1 Q296.3 294.9 296.1 295.7 Q296.0 296.5 295.8 297.3 Q295.6 298.0 295.4 298.8 Q295.2 299.6 295.0 300.4 Q294.8 301.2 294.5 301.9 Q294.2 302.7 294.0 303.4 Q293.7 304.2 293.4 304.9 Q293.1 305.7 292.8 306.4 Q292.4 307.1 292.1 307.9 Q291.8 308.6 291.4 309.3 Q291.0 310.0 290.6 310.7 Q290.2 311.4 289.8 312.1 Q289.4 312.7 288.9 313.4 Q288.5 314.1 288.0 314.7 Q287.6 315.3 287.1 316.0 Q286.6 316.6 286.1 317.2 Q285.6 317.8 285.0 318.4 Q284.5 318.9 283.9 319.5 Q283.4 320.0 282.8 320.6 Q282.2 321.1 281.6 321.6 Q281.0 322.1 280.4 322.6 Q279.8 323.1 279.2 323.5 Q278.5 324.0 277.9 324.4 Q277.2 324.9 276.6 325.3 Q275.9 325.7 275.2 326.0 Q274.6 326.4 273.9 326.8 Q273.2 327.1 272.5 327.4 Q271.8 327.8 271.1 328.1 Q270.4 328.4 269.7 328.7 Q269.0 328.9 268.3 329.2 Q267.6 329.5 266.9 329.7 Q266.1 330.0 265.4 330.2 Q264.7 330.4 264.0 330.6 Q263.3 330.8 262.5 331.0 Q261.8 331.2 261.1 331.4 Q260.4 331.5 259.6 331.7 Q258.9 331.8 258.2 332.0 Q257.4 332.1 256.7 332.2 Q256.0 332.4 255.2 332.5 Q254.5 332.6 253.7 332.7 Q253.0 332.8 252.2 332.9 Q251.5 333.0 250.8 333.0 Q250.0 333.1 249.2 333.2 Q248.5 333.2 247.7 333.2 Q247.0 333.3 246.2 333.3 Q245.4 333.3 244.7 333.3 Q243.9 333.3 243.1 333.3 Q242.4 333.2 241.6 333.2 Q240.8 333.1 240.1 333.1 Q239.3 333.0 238.5 332.9 Q237.7 332.8 237.0 332.6 Q236.2 332.5 235.4 332.3 Q234.6 332.2 233.9 332.0 Q233.1 331.8 232.3 331.6 Q231.6 331.4 230.8 331.1 Q230.1 330.8 229.3 330.6 Q228.6 330.3 227.8 330.0 Q227.1 329.6 226.4 329.3 Q225.7 328.9 225.0 328.6 Q224.3 328.2 223.6 327.8 Q222.9 327.3 222.2 326.9 Q221.5 326.5 220.9 326.0 Q220.2 325.5 219.6 325.0 Q218.9 324.5 218.3 324.0 Q217.7 323.5 217.1 322.9 Q216.5 322.4 215.9 321.8 Q215.3 321.2 214.8 320.6 Q214.2 320.0 213.7 319.4 Q213.2 318.8 212.7 318.1 Q212.2 317.5 211.7 316.8 Q211.2 316.2 210.8 315.5 Q210.3 314.8 209.9 314.1 Q209.5 313.4 209.1 312.7 Q208.7 312.0 208.3 311.2 Q207.9 310.5 207.6 309.8 Q207.2 309.0 206.9 308.3 Q206.6 307.5 206.3 306.8 Q206.0 306.0 205.8 305.2 Q205.5 304.4 205.3 303.7 Q205.1 302.9 204.9 302.1 Q204.7 301.3 204.6 300.5 Q204.4 299.7 204.3 298.9 Q204.2 298.1 204.1 297.3 Q204.0 296.5 203.9 295.7 Q203.9 294.8 203.9 294.0 Q203.8 293.2 203.9 292.4 Q203.9 291.6 203.9 290.8 Q204.0 290.0 204.1 289.2 Q204.1 288.4 204.2 287.6 Q204.4 286.8 204.5 286.0 Q204.7 285.2 204.8 284.5 Q205.0 283.7 205.2 282.9 Q205.4 282.1 205.6 281.4 Q205.9 280.6 206.1 279.9 Q206.4 279.1 206.7 278.4 Q207.0 277.7 207.3 276.9 Q207.6 276.2 207.9 275.5 Q208.2 274.8 208.6 274.1 Q208.9 273.4 209.3 272.7 Q209.6 272.0 210.0 271.3 Q210.4 270.7 210.8 270.0 Q211.2 269.3 211.6 268.7 Q212.0 268.0 212.4 267.4 Q212.8 266.8 213.2 266.1 Q213.7 265.5 214.1 264.9 Q214.5 264.2 215.0 263.6 Q215.4 263.0 215.9 262.4 Q216.4 261.8 216.8 261.2 Q217.3 260.6 217.8 260.0 Q218.3 259.4 218.8 258.8 Q219.3 258.2 219.8 257.7 Q220.4 257.1 220.9 256.5 Q221.5 256.0 222.0 255.4 Q222.6 254.9 223.1 254.4 Q223.7 253.8 224.3 253.3 Q224.9 252.8 225.5 252.3 Q226.2 251.8 226.8 251.4 Q227.4 250.9 228.1 250.5 Q228.7 250.0 229.4 249.6 Q230.1 249.2 230.8 248.8 Q231.5 248.4 232.2 248.1 Q232.9 247.7 233.7 247.4 Q234.4 247.1 235.1 246.8 Q235.9 246.6 236.7 246.3 Q237.4 246.1 238.2 245.9 Q239.0 245.7 239.7 245.5 Q240.5 245.4 241.3 245.3 Q242.1 245.2 242.9 245.1 Q243.7 245.0 244.5 245.0 Q245.3 244.9 246.1 244.9 Q246.8 244.9 247.6 245.0 Q248.4 245.0 249.2 245.1 Q250.0 245.2 250.8 245.3 Q251.6 245.4 252.3 245.5 Q253.1 245.7 253.9 245.8 Q254.6 246.0 255.4 246.2 Q256.1 246.4 256.9 246.6 Q257.6 246.8 258.4 247.0 Q259.1 247.3 259.8 247.5 Q260.5 247.8 261.2 248.0 Q262.0 248.3 262.7 248.5 Q263.4 248.8 264.1 249.1 Q264.8 249.4 265.5 249.7 Q266.2 250.0 266.9 250.3 Q267.5 250.6 268.2 250.9 Q268.9 251.2 269.6 251.5 Q270.3 251.8 271.0 252.2 Q271.6 252.5 272.3 252.9 Q273.0 253.2 273.7 253.5 Q274.4 253.9 275.0 254.3 Q275.7 254.6 276.4 255.0 Q277.0 255.4 277.7 255.8 Q278.4 256.2 279.0 256.6 Q279.7 257.0 280.3 257.5 Q281.0 257.9 281.6 258.4 Q282.3 258.8 282.9 259.3 Q283.6 259.8 284.2 260.3 Q284.8 260.8 285.4 261.3 Q286.0 261.9 286.6 262.4 Q287.2 263.0 287.7 263.6 Q288.3 264.2 288.8 264.8 Q289.3 265.4 289.8 266.1 Q290.4 266.7 290.8 267.4 Q291.3 268.0 291.7 268.7 Q292.2 269.4 292.6 270.1 Q293.0 270.9 293.4 271.6 Q293.7 272.3 294.1 273.1 Q294.4 273.8 294.7 274.6 Q295.0 275.4 295.2 276.2 Q295.5 277.0 295.7 277.7 Q295.9 278.5 296.1 279.4 Q296.3 280.2 296.4 281.0 Q296.6 281.8 296.7 282.6 Q296.8 283.4 296.8 284.2 Q296.9 285.1 296.9 285.9 Q297.0 286.7 296.9 287.5 Q296.9 288.4 296.9 289.2 Z" fill="none" stroke="#F5C518" stroke-width="3.2"/>
    <path d="M286.3 290.0 Q286.3 290.0 286.3 290.6 Q286.3 291.3 286.2 291.9 Q286.2 292.5 286.1 293.2 Q286.0 293.8 285.9 294.4 Q285.8 295.0 285.7 295.6 Q285.5 296.3 285.4 296.9 Q285.2 297.5 285.0 298.1 Q284.9 298.7 284.7 299.3 Q284.5 299.9 284.2 300.5 Q284.0 301.1 283.8 301.6 Q283.5 302.2 283.3 302.8 Q283.0 303.3 282.7 303.9 Q282.4 304.4 282.1 305.0 Q281.8 305.5 281.5 306.0 Q281.1 306.5 280.8 307.1 Q280.4 307.6 280.1 308.1 Q279.7 308.6 279.3 309.0 Q278.9 309.5 278.5 310.0 Q278.1 310.4 277.7 310.9 Q277.3 311.3 276.9 311.7 Q276.4 312.2 276.0 312.6 Q275.5 313.0 275.1 313.4 Q274.6 313.8 274.1 314.1 Q273.7 314.5 273.2 314.9 Q272.7 315.2 272.2 315.6 Q271.7 315.9 271.2 316.2 Q270.8 316.6 270.2 316.9 Q269.7 317.2 269.2 317.5 Q268.7 317.8 268.2 318.0 Q267.7 318.3 267.2 318.6 Q266.6 318.8 266.1 319.1 Q265.6 319.3 265.1 319.6 Q264.5 319.8 264.0 320.0 Q263.5 320.3 262.9 320.5 Q262.4 320.7 261.9 320.9 Q261.3 321.1 260.8 321.3 Q260.2 321.5 259.7 321.6 Q259.1 321.8 258.6 322.0 Q258.0 322.1 257.5 322.3 Q256.9 322.5 256.3 322.6 Q255.8 322.7 255.2 322.9 Q254.6 323.0 254.1 323.1 Q253.5 323.2 252.9 323.4 Q252.3 323.5 251.8 323.5 Q251.2 323.6 250.6 323.7 Q250.0 323.8 249.4 323.8 Q248.8 323.9 248.2 323.9 Q247.6 324.0 247.0 324.0 Q246.4 324.0 245.8 324.0 Q245.2 324.0 244.6 324.0 Q244.0 323.9 243.4 323.9 Q242.8 323.8 242.2 323.8 Q241.6 323.7 241.0 323.6 Q240.4 323.5 239.8 323.3 Q239.2 323.2 238.6 323.1 Q238.0 322.9 237.4 322.7 Q236.8 322.6 236.3 322.3 Q235.7 322.1 235.1 321.9 Q234.6 321.7 234.0 321.4 Q233.4 321.2 232.9 320.9 Q232.3 320.6 231.8 320.3 Q231.3 320.0 230.7 319.7 Q230.2 319.3 229.7 319.0 Q229.2 318.6 228.7 318.3 Q228.2 317.9 227.7 317.5 Q227.2 317.1 226.8 316.7 Q226.3 316.3 225.9 315.9 Q225.4 315.5 225.0 315.0 Q224.5 314.6 224.1 314.1 Q223.7 313.7 223.3 313.2 Q222.9 312.7 222.5 312.3 Q222.1 311.8 221.7 311.3 Q221.4 310.8 221.0 310.3 Q220.6 309.8 220.3 309.3 Q220.0 308.8 219.6 308.2 Q219.3 307.7 219.0 307.2 Q218.7 306.7 218.4 306.1 Q218.1 305.6 217.8 305.0 Q217.5 304.5 217.3 303.9 Q217.0 303.3 216.8 302.8 Q216.5 302.2 216.3 301.6 Q216.1 301.0 215.9 300.4 Q215.7 299.8 215.5 299.2 Q215.3 298.6 215.2 298.0 Q215.0 297.4 214.9 296.8 Q214.7 296.2 214.6 295.6 Q214.5 295.0 214.5 294.4 Q214.4 293.7 214.3 293.1 Q214.3 292.5 214.3 291.9 Q214.2 291.2 214.2 290.6 Q214.2 290.0 214.3 289.4 Q214.3 288.8 214.4 288.1 Q214.4 287.5 214.5 286.9 Q214.6 286.3 214.7 285.7 Q214.9 285.1 215.0 284.5 Q215.2 283.9 215.3 283.3 Q215.5 282.7 215.7 282.1 Q215.9 281.5 216.1 280.9 Q216.4 280.4 216.6 279.8 Q216.8 279.2 217.1 278.7 Q217.4 278.1 217.6 277.6 Q217.9 277.0 218.2 276.5 Q218.5 276.0 218.8 275.5 Q219.2 275.0 219.5 274.4 Q219.8 273.9 220.1 273.5 Q220.5 273.0 220.8 272.5 Q221.2 272.0 221.5 271.5 Q221.9 271.0 222.3 270.6 Q222.6 270.1 223.0 269.7 Q223.4 269.2 223.8 268.8 Q224.2 268.3 224.5 267.9 Q224.9 267.4 225.3 267.0 Q225.7 266.6 226.1 266.1 Q226.6 265.7 227.0 265.3 Q227.4 264.9 227.8 264.5 Q228.2 264.1 228.7 263.7 Q229.1 263.3 229.6 262.9 Q230.0 262.5 230.5 262.1 Q230.9 261.7 231.4 261.4 Q231.9 261.0 232.4 260.6 Q232.8 260.3 233.3 259.9 Q233.8 259.6 234.3 259.3 Q234.9 258.9 235.4 258.6 Q235.9 258.3 236.4 258.1 Q237.0 257.8 237.5 257.5 Q238.1 257.2 238.6 257.0 Q239.2 256.8 239.8 256.6 Q240.4 256.4 240.9 256.2 Q241.5 256.0 242.1 255.8 Q242.7 255.7 243.3 255.5 Q243.9 255.4 244.5 255.3 Q245.1 255.2 245.7 255.2 Q246.3 255.1 246.9 255.1 Q247.6 255.0 248.2 255.0 Q248.8 255.0 249.4 255.0 Q250.0 255.1 250.6 255.1 Q251.2 255.2 251.8 255.2 Q252.4 255.3 253.0 255.4 Q253.6 255.5 254.2 255.7 Q254.8 255.8 255.4 255.9 Q256.0 256.1 256.6 256.3 Q257.1 256.4 257.7 256.6 Q258.3 256.8 258.8 257.0 Q259.4 257.2 259.9 257.5 Q260.5 257.7 261.0 257.9 Q261.6 258.2 262.1 258.4 Q262.7 258.7 263.2 258.9 Q263.7 259.2 264.2 259.4 Q264.8 259.7 265.3 260.0 Q265.8 260.3 266.3 260.6 Q266.8 260.9 267.3 261.1 Q267.8 261.4 268.3 261.8 Q268.8 262.1 269.3 262.4 Q269.8 262.7 270.3 263.0 Q270.8 263.4 271.3 263.7 Q271.8 264.0 272.3 264.4 Q272.7 264.7 273.2 265.1 Q273.7 265.5 274.2 265.8 Q274.6 266.2 275.1 266.6 Q275.5 267.0 276.0 267.4 Q276.4 267.8 276.9 268.2 Q277.3 268.6 277.8 269.1 Q278.2 269.5 278.6 270.0 Q279.0 270.4 279.4 270.9 Q279.8 271.4 280.2 271.9 Q280.6 272.3 280.9 272.9 Q281.3 273.4 281.6 273.9 Q282.0 274.4 282.3 274.9 Q282.6 275.5 282.9 276.0 Q283.2 276.6 283.5 277.1 Q283.8 277.7 284.0 278.3 Q284.3 278.9 284.5 279.5 Q284.7 280.0 284.9 280.6 Q285.1 281.2 285.3 281.9 Q285.5 282.5 285.6 283.1 Q285.7 283.7 285.9 284.3 Q286.0 284.9 286.1 285.6 Q286.1 286.2 286.2 286.8 Q286.3 287.5 286.3 288.1 Q286.3 288.7 286.3 289.4 Z" fill="none" stroke="#F5C518" stroke-width="3.0"/>
    <path d="M276.3 290.0 Q276.3 290.0 276.3 290.5 Q276.3 290.9 276.3 291.4 Q276.2 291.8 276.2 292.3 Q276.2 292.8 276.1 293.2 Q276.1 293.7 276.0 294.1 Q275.9 294.6 275.8 295.0 Q275.7 295.5 275.6 295.9 Q275.5 296.4 275.4 296.8 Q275.2 297.2 275.1 297.7 Q274.9 298.1 274.8 298.5 Q274.6 299.0 274.4 299.4 Q274.2 299.8 274.0 300.2 Q273.8 300.6 273.6 301.0 Q273.4 301.4 273.1 301.8 Q272.9 302.2 272.6 302.6 Q272.4 302.9 272.1 303.3 Q271.9 303.7 271.6 304.0 Q271.3 304.4 271.0 304.7 Q270.7 305.0 270.4 305.4 Q270.1 305.7 269.7 306.0 Q269.4 306.3 269.1 306.6 Q268.8 306.9 268.4 307.2 Q268.1 307.4 267.7 307.7 Q267.4 308.0 267.0 308.2 Q266.6 308.5 266.3 308.7 Q265.9 309.0 265.5 309.2 Q265.2 309.4 264.8 309.6 Q264.4 309.9 264.0 310.1 Q263.7 310.3 263.3 310.4 Q262.9 310.6 262.5 310.8 Q262.1 311.0 261.7 311.2 Q261.4 311.4 261.0 311.5 Q260.6 311.7 260.2 311.8 Q259.8 312.0 259.4 312.1 Q259.0 312.3 258.6 312.4 Q258.2 312.6 257.8 312.7 Q257.4 312.9 257.0 313.0 Q256.6 313.1 256.2 313.2 Q255.8 313.4 255.4 313.5 Q255.0 313.6 254.6 313.7 Q254.2 313.8 253.8 313.9 Q253.4 314.0 253.0 314.1 Q252.5 314.2 252.1 314.3 Q251.7 314.4 251.3 314.5 Q250.9 314.5 250.4 314.6 Q250.0 314.7 249.6 314.7 Q249.1 314.8 248.7 314.8 Q248.3 314.9 247.8 314.9 Q247.4 314.9 246.9 314.9 Q246.5 314.9 246.1 314.9 Q245.6 314.9 245.2 314.9 Q244.7 314.8 244.3 314.8 Q243.8 314.7 243.4 314.7 Q242.9 314.6 242.5 314.5 Q242.1 314.4 241.6 314.3 Q241.2 314.2 240.8 314.1 Q240.3 314.0 239.9 313.8 Q239.5 313.7 239.0 313.5 Q238.6 313.3 238.2 313.1 Q237.8 312.9 237.4 312.7 Q237.0 312.5 236.6 312.3 Q236.2 312.0 235.8 311.8 Q235.5 311.5 235.1 311.3 Q234.7 311.0 234.4 310.7 Q234.0 310.5 233.7 310.2 Q233.3 309.9 233.0 309.6 Q232.7 309.2 232.4 308.9 Q232.0 308.6 231.7 308.3 Q231.4 307.9 231.1 307.6 Q230.8 307.3 230.6 306.9 Q230.3 306.6 230.0 306.2 Q229.7 305.8 229.5 305.5 Q229.2 305.1 229.0 304.7 Q228.7 304.3 228.5 304.0 Q228.3 303.6 228.0 303.2 Q227.8 302.8 227.6 302.4 Q227.4 302.0 227.2 301.6 Q227.0 301.2 226.8 300.8 Q226.6 300.4 226.4 300.0 Q226.2 299.6 226.1 299.2 Q225.9 298.8 225.7 298.4 Q225.6 297.9 225.4 297.5 Q225.3 297.1 225.2 296.7 Q225.0 296.2 224.9 295.8 Q224.8 295.4 224.7 294.9 Q224.6 294.5 224.5 294.0 Q224.4 293.6 224.3 293.1 Q224.3 292.7 224.2 292.3 Q224.2 291.8 224.1 291.4 Q224.1 290.9 224.1 290.5 Q224.1 290.0 224.1 289.5 Q224.1 289.1 224.1 288.6 Q224.1 288.2 224.2 287.7 Q224.2 287.3 224.3 286.8 Q224.4 286.4 224.4 286.0 Q224.5 285.5 224.6 285.1 Q224.7 284.6 224.9 284.2 Q225.0 283.8 225.1 283.3 Q225.3 282.9 225.4 282.5 Q225.6 282.1 225.8 281.7 Q226.0 281.2 226.2 280.8 Q226.3 280.4 226.6 280.0 Q226.8 279.7 227.0 279.3 Q227.2 278.9 227.4 278.5 Q227.7 278.1 227.9 277.8 Q228.2 277.4 228.4 277.0 Q228.7 276.7 229.0 276.3 Q229.2 276.0 229.5 275.7 Q229.8 275.3 230.1 275.0 Q230.4 274.7 230.7 274.3 Q230.9 274.0 231.2 273.7 Q231.5 273.4 231.9 273.1 Q232.2 272.8 232.5 272.5 Q232.8 272.2 233.1 271.9 Q233.4 271.6 233.8 271.3 Q234.1 271.0 234.4 270.7 Q234.7 270.5 235.1 270.2 Q235.4 269.9 235.8 269.7 Q236.1 269.4 236.5 269.2 Q236.8 268.9 237.2 268.7 Q237.5 268.4 237.9 268.2 Q238.3 268.0 238.7 267.7 Q239.0 267.5 239.4 267.3 Q239.8 267.1 240.2 266.9 Q240.6 266.7 241.0 266.5 Q241.4 266.4 241.8 266.2 Q242.2 266.0 242.6 265.9 Q243.0 265.7 243.5 265.6 Q243.9 265.4 244.3 265.3 Q244.7 265.2 245.2 265.1 Q245.6 265.0 246.0 264.9 Q246.5 264.9 246.9 264.8 Q247.3 264.7 247.8 264.7 Q248.2 264.6 248.7 264.6 Q249.1 264.6 249.6 264.6 Q250.0 264.6 250.4 264.6 Q250.9 264.6 251.3 264.7 Q251.8 264.7 252.2 264.8 Q252.6 264.8 253.1 264.9 Q253.5 264.9 254.0 265.0 Q254.4 265.1 254.8 265.2 Q255.2 265.3 255.7 265.5 Q256.1 265.6 256.5 265.7 Q256.9 265.8 257.3 266.0 Q257.8 266.1 258.2 266.3 Q258.6 266.5 259.0 266.6 Q259.4 266.8 259.8 267.0 Q260.2 267.2 260.6 267.4 Q260.9 267.6 261.3 267.8 Q261.7 268.0 262.1 268.2 Q262.5 268.4 262.8 268.6 Q263.2 268.9 263.6 269.1 Q263.9 269.3 264.3 269.6 Q264.7 269.8 265.0 270.1 Q265.4 270.3 265.7 270.6 Q266.1 270.9 266.4 271.1 Q266.7 271.4 267.1 271.7 Q267.4 272.0 267.7 272.3 Q268.1 272.6 268.4 272.9 Q268.7 273.2 269.0 273.5 Q269.3 273.8 269.6 274.1 Q269.9 274.4 270.2 274.8 Q270.5 275.1 270.8 275.5 Q271.1 275.8 271.3 276.2 Q271.6 276.5 271.9 276.9 Q272.1 277.2 272.4 277.6 Q272.6 278.0 272.8 278.4 Q273.1 278.7 273.3 279.1 Q273.5 279.5 273.7 279.9 Q273.9 280.3 274.1 280.7 Q274.3 281.2 274.5 281.6 Q274.7 282.0 274.8 282.4 Q275.0 282.8 275.1 283.3 Q275.3 283.7 275.4 284.1 Q275.5 284.6 275.6 285.0 Q275.7 285.5 275.8 285.9 Q275.9 286.4 276.0 286.8 Q276.1 287.3 276.1 287.7 Q276.2 288.2 276.2 288.6 Q276.2 289.1 276.3 289.5 Z" fill="none" stroke="#F5C518" stroke-width="2.8"/>
    <path d="M267.3 290.0 Q267.3 290.0 267.3 290.3 Q267.3 290.6 267.3 290.9 Q267.3 291.2 267.3 291.5 Q267.3 291.8 267.2 292.1 Q267.2 292.4 267.2 292.7 Q267.1 293.0 267.1 293.3 Q267.0 293.6 267.0 293.9 Q266.9 294.2 266.8 294.5 Q266.7 294.8 266.7 295.1 Q266.6 295.4 266.5 295.7 Q266.4 296.0 266.3 296.2 Q266.1 296.5 266.0 296.8 Q265.9 297.1 265.8 297.3 Q265.6 297.6 265.5 297.9 Q265.3 298.1 265.2 298.4 Q265.0 298.7 264.8 298.9 Q264.7 299.2 264.5 299.4 Q264.3 299.6 264.1 299.9 Q263.9 300.1 263.7 300.3 Q263.5 300.5 263.3 300.8 Q263.1 301.0 262.9 301.2 Q262.6 301.4 262.4 301.6 Q262.2 301.8 261.9 301.9 Q261.7 302.1 261.5 302.3 Q261.2 302.5 261.0 302.6 Q260.7 302.8 260.5 302.9 Q260.2 303.1 260.0 303.2 Q259.7 303.4 259.5 303.5 Q259.2 303.6 258.9 303.8 Q258.7 303.9 258.4 304.0 Q258.1 304.1 257.9 304.2 Q257.6 304.3 257.4 304.4 Q257.1 304.5 256.8 304.6 Q256.6 304.7 256.3 304.8 Q256.0 304.9 255.8 305.0 Q255.5 305.1 255.2 305.2 Q255.0 305.3 254.7 305.3 Q254.4 305.4 254.1 305.5 Q253.9 305.6 253.6 305.6 Q253.3 305.7 253.1 305.8 Q252.8 305.8 252.5 305.9 Q252.2 306.0 252.0 306.0 Q251.7 306.1 251.4 306.1 Q251.1 306.2 250.8 306.2 Q250.6 306.3 250.3 306.3 Q250.0 306.4 249.7 306.4 Q249.4 306.4 249.1 306.5 Q248.8 306.5 248.6 306.5 Q248.3 306.5 248.0 306.5 Q247.7 306.5 247.4 306.5 Q247.1 306.5 246.8 306.5 Q246.5 306.5 246.2 306.5 Q245.9 306.5 245.6 306.4 Q245.3 306.4 245.0 306.3 Q244.7 306.3 244.4 306.2 Q244.1 306.1 243.8 306.1 Q243.5 306.0 243.3 305.9 Q243.0 305.8 242.7 305.7 Q242.4 305.6 242.1 305.5 Q241.8 305.3 241.6 305.2 Q241.3 305.1 241.0 304.9 Q240.8 304.8 240.5 304.6 Q240.3 304.4 240.0 304.3 Q239.8 304.1 239.5 303.9 Q239.3 303.7 239.0 303.5 Q238.8 303.3 238.6 303.1 Q238.4 302.9 238.2 302.7 Q237.9 302.5 237.7 302.3 Q237.5 302.0 237.3 301.8 Q237.2 301.6 237.0 301.3 Q236.8 301.1 236.6 300.8 Q236.4 300.6 236.3 300.4 Q236.1 300.1 235.9 299.8 Q235.8 299.6 235.6 299.3 Q235.5 299.1 235.3 298.8 Q235.2 298.5 235.1 298.3 Q234.9 298.0 234.8 297.7 Q234.7 297.5 234.6 297.2 Q234.5 296.9 234.3 296.6 Q234.2 296.4 234.1 296.1 Q234.0 295.8 233.9 295.5 Q233.8 295.2 233.8 295.0 Q233.7 294.7 233.6 294.4 Q233.5 294.1 233.4 293.8 Q233.4 293.5 233.3 293.2 Q233.3 293.0 233.2 292.7 Q233.1 292.4 233.1 292.1 Q233.1 291.8 233.0 291.5 Q233.0 291.2 233.0 290.9 Q232.9 290.6 232.9 290.3 Q232.9 290.0 232.9 289.7 Q232.9 289.4 232.9 289.1 Q232.9 288.8 233.0 288.5 Q233.0 288.2 233.0 287.9 Q233.0 287.6 233.1 287.3 Q233.1 287.0 233.2 286.7 Q233.3 286.4 233.3 286.2 Q233.4 285.9 233.5 285.6 Q233.6 285.3 233.7 285.0 Q233.7 284.7 233.9 284.4 Q234.0 284.2 234.1 283.9 Q234.2 283.6 234.3 283.3 Q234.4 283.1 234.6 282.8 Q234.7 282.5 234.9 282.3 Q235.0 282.0 235.2 281.8 Q235.3 281.5 235.5 281.3 Q235.7 281.0 235.8 280.8 Q236.0 280.6 236.2 280.3 Q236.4 280.1 236.6 279.9 Q236.7 279.6 236.9 279.4 Q237.1 279.2 237.3 279.0 Q237.5 278.8 237.7 278.6 Q238.0 278.4 238.2 278.2 Q238.4 278.0 238.6 277.8 Q238.8 277.6 239.0 277.4 Q239.3 277.2 239.5 277.0 Q239.7 276.9 240.0 276.7 Q240.2 276.5 240.4 276.3 Q240.7 276.2 240.9 276.0 Q241.2 275.9 241.4 275.7 Q241.7 275.6 241.9 275.4 Q242.2 275.3 242.4 275.1 Q242.7 275.0 242.9 274.9 Q243.2 274.8 243.5 274.6 Q243.7 274.5 244.0 274.4 Q244.3 274.3 244.6 274.2 Q244.8 274.1 245.1 274.0 Q245.4 273.9 245.7 273.8 Q246.0 273.8 246.2 273.7 Q246.5 273.6 246.8 273.6 Q247.1 273.5 247.4 273.4 Q247.7 273.4 248.0 273.4 Q248.2 273.3 248.5 273.3 Q248.8 273.3 249.1 273.2 Q249.4 273.2 249.7 273.2 Q250.0 273.2 250.3 273.2 Q250.6 273.2 250.9 273.2 Q251.2 273.3 251.5 273.3 Q251.8 273.3 252.0 273.4 Q252.3 273.4 252.6 273.4 Q252.9 273.5 253.2 273.5 Q253.5 273.6 253.8 273.7 Q254.1 273.7 254.3 273.8 Q254.6 273.9 254.9 274.0 Q255.2 274.1 255.5 274.2 Q255.7 274.2 256.0 274.4 Q256.3 274.5 256.6 274.6 Q256.8 274.7 257.1 274.8 Q257.4 274.9 257.6 275.1 Q257.9 275.2 258.1 275.3 Q258.4 275.5 258.6 275.6 Q258.9 275.8 259.1 275.9 Q259.4 276.1 259.6 276.2 Q259.9 276.4 260.1 276.6 Q260.4 276.7 260.6 276.9 Q260.8 277.1 261.1 277.3 Q261.3 277.5 261.5 277.7 Q261.7 277.9 261.9 278.1 Q262.2 278.3 262.4 278.5 Q262.6 278.7 262.8 278.9 Q263.0 279.1 263.2 279.3 Q263.4 279.6 263.6 279.8 Q263.7 280.0 263.9 280.3 Q264.1 280.5 264.3 280.7 Q264.4 281.0 264.6 281.2 Q264.7 281.5 264.9 281.7 Q265.1 282.0 265.2 282.3 Q265.3 282.5 265.5 282.8 Q265.6 283.1 265.7 283.3 Q265.9 283.6 266.0 283.9 Q266.1 284.1 266.2 284.4 Q266.3 284.7 266.4 285.0 Q266.5 285.3 266.6 285.6 Q266.6 285.8 266.7 286.1 Q266.8 286.4 266.9 286.7 Q266.9 287.0 267.0 287.3 Q267.0 287.6 267.1 287.9 Q267.1 288.2 267.2 288.5 Q267.2 288.8 267.2 289.1 Q267.3 289.4 267.3 289.7 Z" fill="none" stroke="#F5C518" stroke-width="2.6"/>
    <path d="M258.2 290.0 Q258.2 290.0 258.1 290.1 Q258.1 290.3 258.1 290.4 Q258.1 290.6 258.1 290.7 Q258.1 290.9 258.1 291.0 Q258.1 291.1 258.0 291.3 Q258.0 291.4 258.0 291.6 Q258.0 291.7 257.9 291.8 Q257.9 292.0 257.8 292.1 Q257.8 292.2 257.8 292.4 Q257.7 292.5 257.7 292.6 Q257.6 292.8 257.6 292.9 Q257.5 293.0 257.5 293.2 Q257.4 293.3 257.3 293.4 Q257.3 293.5 257.2 293.7 Q257.1 293.8 257.1 293.9 Q257.0 294.0 256.9 294.2 Q256.8 294.3 256.8 294.4 Q256.7 294.5 256.6 294.6 Q256.5 294.7 256.4 294.8 Q256.3 294.9 256.2 295.0 Q256.1 295.1 256.0 295.2 Q255.9 295.3 255.8 295.4 Q255.7 295.5 255.6 295.6 Q255.5 295.7 255.4 295.8 Q255.3 295.9 255.2 296.0 Q255.1 296.1 255.0 296.1 Q254.9 296.2 254.7 296.3 Q254.6 296.4 254.5 296.4 Q254.4 296.5 254.3 296.6 Q254.1 296.6 254.0 296.7 Q253.9 296.8 253.8 296.8 Q253.7 296.9 253.5 296.9 Q253.4 297.0 253.3 297.0 Q253.2 297.1 253.0 297.1 Q252.9 297.2 252.8 297.2 Q252.6 297.3 252.5 297.3 Q252.4 297.3 252.3 297.4 Q252.1 297.4 252.0 297.5 Q251.9 297.5 251.7 297.5 Q251.6 297.5 251.5 297.6 Q251.3 297.6 251.2 297.6 Q251.1 297.7 250.9 297.7 Q250.8 297.7 250.7 297.7 Q250.5 297.7 250.4 297.7 Q250.3 297.8 250.1 297.8 Q250.0 297.8 249.9 297.8 Q249.7 297.8 249.6 297.8 Q249.5 297.8 249.3 297.8 Q249.2 297.8 249.0 297.8 Q248.9 297.8 248.8 297.8 Q248.6 297.8 248.5 297.8 Q248.4 297.8 248.2 297.7 Q248.1 297.7 247.9 297.7 Q247.8 297.7 247.7 297.6 Q247.5 297.6 247.4 297.6 Q247.3 297.5 247.1 297.5 Q247.0 297.5 246.9 297.4 Q246.7 297.4 246.6 297.3 Q246.5 297.3 246.3 297.2 Q246.2 297.1 246.1 297.1 Q245.9 297.0 245.8 296.9 Q245.7 296.9 245.6 296.8 Q245.5 296.7 245.3 296.7 Q245.2 296.6 245.1 296.5 Q245.0 296.4 244.9 296.3 Q244.8 296.2 244.7 296.1 Q244.6 296.0 244.4 296.0 Q244.3 295.9 244.2 295.8 Q244.1 295.7 244.0 295.5 Q244.0 295.4 243.9 295.3 Q243.8 295.2 243.7 295.1 Q243.6 295.0 243.5 294.9 Q243.4 294.8 243.3 294.7 Q243.3 294.5 243.2 294.4 Q243.1 294.3 243.0 294.2 Q243.0 294.1 242.9 293.9 Q242.8 293.8 242.8 293.7 Q242.7 293.6 242.7 293.4 Q242.6 293.3 242.5 293.2 Q242.5 293.0 242.4 292.9 Q242.4 292.8 242.3 292.6 Q242.3 292.5 242.3 292.4 Q242.2 292.2 242.2 292.1 Q242.1 292.0 242.1 291.8 Q242.1 291.7 242.1 291.5 Q242.0 291.4 242.0 291.3 Q242.0 291.1 242.0 291.0 Q242.0 290.8 242.0 290.7 Q241.9 290.6 241.9 290.4 Q241.9 290.3 241.9 290.1 Q241.9 290.0 241.9 289.9 Q241.9 289.7 242.0 289.6 Q242.0 289.4 242.0 289.3 Q242.0 289.2 242.0 289.0 Q242.0 288.9 242.1 288.7 Q242.1 288.6 242.1 288.5 Q242.2 288.3 242.2 288.2 Q242.2 288.1 242.3 287.9 Q242.3 287.8 242.4 287.7 Q242.4 287.5 242.5 287.4 Q242.5 287.3 242.6 287.1 Q242.6 287.0 242.7 286.9 Q242.7 286.8 242.8 286.6 Q242.9 286.5 242.9 286.4 Q243.0 286.3 243.1 286.2 Q243.1 286.0 243.2 285.9 Q243.3 285.8 243.4 285.7 Q243.4 285.6 243.5 285.5 Q243.6 285.4 243.7 285.2 Q243.8 285.1 243.9 285.0 Q244.0 284.9 244.0 284.8 Q244.1 284.7 244.2 284.6 Q244.3 284.5 244.4 284.4 Q244.5 284.3 244.6 284.2 Q244.7 284.1 244.8 284.0 Q244.9 283.9 245.0 283.9 Q245.1 283.8 245.2 283.7 Q245.3 283.6 245.5 283.5 Q245.6 283.4 245.7 283.3 Q245.8 283.3 245.9 283.2 Q246.0 283.1 246.1 283.0 Q246.3 283.0 246.4 282.9 Q246.5 282.8 246.6 282.8 Q246.8 282.7 246.9 282.7 Q247.0 282.6 247.1 282.5 Q247.3 282.5 247.4 282.4 Q247.5 282.4 247.7 282.4 Q247.8 282.3 247.9 282.3 Q248.1 282.2 248.2 282.2 Q248.3 282.2 248.5 282.2 Q248.6 282.1 248.8 282.1 Q248.9 282.1 249.0 282.1 Q249.2 282.1 249.3 282.1 Q249.4 282.0 249.6 282.0 Q249.7 282.0 249.9 282.0 Q250.0 282.0 250.1 282.1 Q250.3 282.1 250.4 282.1 Q250.6 282.1 250.7 282.1 Q250.8 282.1 251.0 282.1 Q251.1 282.2 251.2 282.2 Q251.4 282.2 251.5 282.3 Q251.6 282.3 251.8 282.3 Q251.9 282.4 252.0 282.4 Q252.2 282.4 252.3 282.5 Q252.4 282.5 252.6 282.6 Q252.7 282.6 252.8 282.7 Q252.9 282.7 253.1 282.8 Q253.2 282.8 253.3 282.9 Q253.4 282.9 253.6 283.0 Q253.7 283.1 253.8 283.1 Q253.9 283.2 254.1 283.3 Q254.2 283.3 254.3 283.4 Q254.4 283.5 254.5 283.5 Q254.6 283.6 254.8 283.7 Q254.9 283.8 255.0 283.9 Q255.1 283.9 255.2 284.0 Q255.3 284.1 255.4 284.2 Q255.5 284.3 255.6 284.4 Q255.7 284.5 255.8 284.6 Q255.9 284.7 256.0 284.8 Q256.1 284.9 256.2 285.0 Q256.3 285.1 256.4 285.2 Q256.5 285.3 256.6 285.4 Q256.7 285.5 256.8 285.6 Q256.9 285.7 256.9 285.8 Q257.0 286.0 257.1 286.1 Q257.2 286.2 257.2 286.3 Q257.3 286.4 257.4 286.6 Q257.4 286.7 257.5 286.8 Q257.5 287.0 257.6 287.1 Q257.7 287.2 257.7 287.3 Q257.8 287.5 257.8 287.6 Q257.8 287.8 257.9 287.9 Q257.9 288.0 257.9 288.2 Q258.0 288.3 258.0 288.4 Q258.0 288.6 258.1 288.7 Q258.1 288.9 258.1 289.0 Q258.1 289.1 258.1 289.3 Q258.1 289.4 258.1 289.6 Q258.2 289.7 258.2 289.9 Z" fill="none" stroke="#F5C518" stroke-width="2.4"/>
  </g>
  <!-- Wordmark near the top point -->
  <text x="250" y="160" text-anchor="middle" font-family="Helvetica, Arial, sans-serif" font-size="24" font-weight="500" fill="#111" letter-spacing="0.5">SLOW</text>
</svg>
